<?xml version="1.0" standalone="no"?>
<!DOCTYPE svg PUBLIC "-//W3C//DTD SVG 20010904//EN"
 "http://www.w3.org/TR/2001/REC-SVG-20010904/DTD/svg10.dtd">
<svg version="1.0" xmlns="http://www.w3.org/2000/svg"
 width="128.000000pt" height="128.000000pt" viewBox="0 0 128.000000 128.000000"
 preserveAspectRatio="xMidYMid meet">
<metadata>
Created by potrace 1.11, written by Peter Selinger 2001-2013
</metadata>
<g transform="translate(0.000000,128.000000) scale(0.100000,-0.100000)"
fill="#000000" stroke="none">
<path d="M322 1163 c-181 -37 -312 -170 -317 -321 -4 -124 54 -216 184 -295
30 -18 55 -40 57 -49 4 -29 -16 -100 -36 -129 -26 -36 -26 -38 13 -30 70 16
135 69 158 128 13 35 45 24 77 -28 47 -73 136 -135 237 -164 46 -14 103 -21
191 -25 7 0 14 -10 18 -23 6 -27 60 -83 95 -101 14 -7 40 -16 58 -19 l32 -6
-25 48 c-14 27 -26 68 -27 92 -2 43 -1 44 48 71 114 62 184 160 191 269 4 86
-18 147 -82 217 -62 69 -147 115 -244 132 -36 7 -74 14 -85 16 -11 2 -32 23
-47 48 -80 134 -302 210 -496 169z"/>
</g>
</svg>
